<svg id="Layer_1" enable-background="new 0 0 512.095 512.095" height="512" viewBox="0 0 512.095 512.095" width="512" xmlns="http://www.w3.org/2000/svg"><path d="m208.492 503.897c190.137-20.482 289.074-319.573 180.877-418.834-3.468-3.182-8.153-4.207-12.492-2.869-13.623 4.202-43.015 16.056-49.414 41.475-8.129 32.297 39.85 178.286-142.473 305.964-11.471 8.033-17.886 22.492-16.725 37.439 1.748 22.499 19.86 39.019 40.227 36.825z" fill="#ffb750"/><path d="m391.956 94.202c-2.68-3.998-7.008-6.221-11.512-6.058-6.658.242-17.08 1.216-27.467 4.581-11.176 6.765-21.937 16.735-25.513 30.944-8.129 32.297 39.85 178.286-142.473 305.964-8.452 5.919-14.159 15.326-16.113 25.846 169.262-12.016 300.221-246.175 223.078-361.277z" fill="#ea8e50"/><path d="m362.556 60.724s-19.552-20.559-29.148-44.377c-2.796-6.941-10.145-10.108-16.538-7.293l-5.191 2.285c-6.85 3.015-10.041 11.738-6.986 19.146 8.018 19.443 21.372 55.31 20.449 76.539z" fill="#a8ffa9"/><path d="m320.731 8.069c-1.296.106-2.597.428-3.861.985l-5.191 2.285c-6.85 3.015-10.041 11.738-6.986 19.146 3.725 9.034 8.603 21.613 12.665 34.623 8.488-17.563 9.473-38.823 3.373-57.039z" fill="#c9ffd2"/><path d="m109.637 426.118c189.103 29.902 349.921-234.679 266.317-359.422-2.68-3.998-7.008-6.221-11.512-6.058-14.141.513-45.253 4.329-56.969 27.342-14.885 29.239.121 183.597-204.591 259.855-12.88 4.798-22.24 17.161-24.346 31.982-3.171 22.311 10.845 43.098 31.101 46.301z" fill="#ffe070"/><path d="m106.869 367.416c213.595-67.763 204.735-227.151 221.273-256.426 12.612-22.326 43.173-25.188 58.297-25.157-2.934-6.676-6.421-13.071-10.485-19.136-2.68-3.998-7.008-6.221-11.512-6.058-14.141.513-45.253 4.329-56.969 27.342-14.885 29.239.121 183.597-204.591 259.855-19.541 7.279-29.583 31.078-22.557 52.145 2.505-15.352 12.634-28.152 26.544-32.565z" fill="#fff2b9"/><path d="m375.954 66.696c-1.578-2.355-3.729-4.094-6.15-5.092 33.154 79.149-9.741 196.363-88.338 270.572l-.018.02c-5.458 5.152-11.087 10.097-16.875 14.807-16.418 10.312-37.436 15.772-54.627 19.564-4.154.916-8.359 1.777-12.252 3.62-5.276 2.497-9.725 6.669-14.27 10.54-5.062 4.314-26.165 28.66-91.311 19.09-4.789-.704-9.217-2.493-13.16-4.999 3.213 15.964 15.102 28.835 30.685 31.299 189.102 29.903 349.92-234.678 266.316-359.421z" fill="#ffce66"/><path d="m333.295 130.292c.792.989 2.108 1.673 3.186 1.102.497-.263.864-.75 1.199-1.234 2.098-3.021 3.656-6.497 4.56-10.17.331-1.343.576-2.749.372-4.124-.816-5.515-6.551-3.844-8.455-.396-2.071 3.754-3.755 11.211-.862 14.822z" fill="#fff2b9"/><g fill="#231f20"><path d="m363.936 100.101c.234-4.412-3.153-8.179-7.564-8.413-4.432-.239-8.179 3.153-8.413 7.564-5.76 108.491-53.207 194.785-147.871 245.443-3.896 2.085-5.364 6.933-3.279 10.828 2.085 3.896 6.933 5.363 10.828 3.279 93.155-49.85 149.819-136.635 156.299-258.701z"/><path d="m181.108 355.281c-3.088.606-5.644 3.074-6.27 6.28-1.139 5.365 3.635 10.541 9.4 9.41 4.084-.798 7.162-4.825 6.28-9.41-.833-4.244-5.033-7.164-9.41-6.28z"/><path d="m394.777 79.168c-1.231-1.13-2.577-2.078-4.003-2.876-2.448-4.874-5.169-9.565-8.174-14.048-3.837-5.726-9.911-9.207-16.527-9.571-28.913-33.128-21.603-44.952-36.865-51.166-10.364-4.218-17.853 1.668-20.752 2.51-10.889 4.793-15.894 18.035-11.159 29.517 3.937 9.547 9.267 23.339 13.432 37.267-4.314 3.928-7.788 8.448-10.385 13.55-9.986 19.616-7.345 78.638-46.359 140.559-31.74 50.376-83.518 89.212-153.895 115.429-15.646 5.829-26.94 20.524-29.474 38.353-3.784 26.617 13.161 51.437 37.771 55.329 20.063 3.172 40.44 3.205 60.949.105-6.659 9.385-10 21.296-9.047 33.567 2.067 26.603 23.841 46.876 49.06 44.159 104.375-11.244 182.634-103.233 215.667-203.745 24.91-75.801 28.255-175.277-30.239-228.939zm-70.153-17.621c-4.089-12.916-8.892-25.277-12.535-34.113-1.376-3.337-.047-7.547 2.813-8.773 4.789-2.053 6.077-3.228 8.274-2.333 4.845 1.971 2.731 11.036 23.695 38.172-7.603 1.393-15.328 3.68-22.247 7.047zm-213.738 356.67c-10.859-1.717-19.384-9.947-22.963-20.675 12.616-1.608 39.486-6.086 72.022-17.689 4.162-1.484 6.332-6.061 4.848-10.222-1.484-4.163-6.064-6.335-10.222-4.848-30.514 10.881-56.174 15.224-68.191 16.807 1.595-12.816 9.385-22.565 19.296-26.257 209.015-77.862 195.241-236.84 208.927-263.723 8.5-16.697 31.408-22.296 50.129-22.977 1.771-.058 3.478.877 4.577 2.518 51.032 76.142 5.003 201.314-70.086 275.966-51.107 50.807-118.279 82.177-188.337 71.1zm96.749 77.726c-16.087 1.733-30.018-11.78-31.394-29.49-.951-12.241 4.16-23.839 13.338-30.266 4.723-3.308 9.395-6.7 13.904-10.097 127.818-41.503 221.161-198.57 200.173-310.951 68.771 112.888-26.854 362.581-196.021 380.804z"/></g></svg>