<svg id="Layer_1" enable-background="new 0 0 511.999 511.999" height="512" viewBox="0 0 511.999 511.999" width="512" xmlns="http://www.w3.org/2000/svg"><path d="m289.523 19.766c-47.298 52.902-22.308 146.79 65.107 177.077 6.799 2.356-21.701 16.612-21.701 16.612-87.738-26.916-94.954-91.065-94.954-91.065-81.108 20.021-85.509 121.927-85.509 121.927l-26.695 3.404s-16.382-119.946 105.214-159.871c0 0-2.99-49.907 33.887-79.851z" fill="#cd8e50"/><path d="m354.63 196.843c-87.415-30.287-112.405-124.176-65.107-177.077l-14.137-7.05c-50.138 58.685-26.723 158.643 60.692 191.375 2.992 1.121 25.35-4.892 18.552-7.248z" fill="#ba8050"/><path d="m239.09 115.581c-3.159-4.999-9.461-6.942-15.083-5.108-74.055 24.161-81.926 117.76-81.926 117.76l-1.138 17.554 11.522-1.469s4.221-97.405 80.219-120.457c7.257.077 9.48-3.416 6.406-8.28z" fill="#ba8050"/><path d="m354.63 196.843c-6.256-2.167-12.181-4.671-17.794-7.452-6.471 4.065-14.292 7.979-14.292 7.979-38.657-11.859-61.677-30.945-75.341-48.588 11.005 20.885 34.8 49.05 85.726 64.673 0 0 28.499-14.256 21.701-16.612z" fill="#ba8050"/><ellipse cx="307.015" cy="400.336" fill="#455d7d" rx="103.513" ry="103.664"/><path d="m409.84 388.392c-5.915-51.625-49.691-91.72-102.825-91.72-57.168 0-103.513 46.412-103.513 103.664 0 18.124 4.649 35.158 12.811 49.981 21.43-8.41 39.993-22.543 53.808-40.525 6.882-8.958 18.771-12.296 29.437-8.575 35.729 12.463 76.621 8.639 110.282-12.825z" fill="#2e445e"/><ellipse cx="170.512" cy="340.175" fill="#66658b" rx="103.513" ry="103.664"/><ellipse cx="170.512" cy="340.175" fill="#455d7d" rx="103.513" ry="103.664"/><path d="m89.719 340.175c0-56.316 46.048-102.311 103.086-101.246-7.181-1.579-14.638-2.418-22.292-2.418-57.169 0-103.513 46.412-103.513 103.664s46.344 103.664 103.513 103.664c7.654 0 15.112-.84 22.292-2.418-56.599 1.099-103.086-44.532-103.086-101.246z" fill="#6b86ab"/><path d="m167.789 296.496c0 4.48-4.928 7.68-7.016 11.298-2.156 3.735-2.529 9.58-6.257 11.741-3.616 2.097-8.818-.434-13.297-.434s-9.681 2.53-13.297.433c-3.728-2.162-4.101-8.007-6.257-11.742-2.089-3.618-7.016-6.818-7.016-11.298s4.928-7.68 7.016-11.298c2.156-3.735 2.529-9.58 6.257-11.741 3.616-2.097 8.818.433 13.297.433s9.681-2.53 13.297-.433c3.728 2.162 4.101 8.007 6.257 11.742 2.088 3.619 7.016 6.819 7.016 11.299z" fill="#ffb750"/><path d="m150.581 296.496c0 1.579-1.736 2.706-2.472 3.981-.76 1.316-.891 3.376-2.205 4.137-1.274.739-3.107-.153-4.685-.153s-3.411.891-4.686.153c-1.314-.762-1.445-2.821-2.205-4.137-.736-1.275-2.472-2.403-2.472-3.981 0-1.579 1.736-2.706 2.472-3.981.76-1.316.891-3.376 2.205-4.137 1.274-.739 3.107.153 4.685.153s3.411-.891 4.686-.153c1.314.762 1.445 2.821 2.205 4.137.735 1.275 2.472 2.402 2.472 3.981z" fill="#ffe070"/><ellipse cx="341.487" cy="287.655" fill="#455d7d" rx="103.513" ry="103.664"/><path d="m259.592 288.655c0-54.642 44.232-98.938 98.795-98.938 8.795 0 17.319 1.157 25.435 3.316-12.924-5.808-27.252-9.041-42.335-9.041-57.168 0-103.513 46.412-103.513 103.664s46.344 103.664 103.513 103.664c10.802 0 21.216-1.659 31.005-4.733-59.891 8.574-112.9-37.962-112.9-97.932z" fill="#6b86ab"/><path d="m386.303 261.345c-3.165 3.169-8.91 1.948-12.944 3.027-4.163 1.113-8.561 4.977-12.724 3.864-4.034-1.079-5.915-6.548-9.08-9.717-3.165-3.17-8.635-5.062-9.711-9.103-1.111-4.167 2.755-8.57 3.865-12.737 1.077-4.041-.15-9.789 3.016-12.959 3.165-3.169 8.91-1.948 12.944-3.027 4.163-1.113 8.561-4.977 12.724-3.864 4.034 1.079 5.915 6.548 9.08 9.717 3.166 3.17 8.635 5.062 9.711 9.103 1.111 4.167-2.755 8.57-3.865 12.737-1.078 4.04.149 9.788-3.016 12.959z" fill="#ffb750"/><path d="m373.656 248.682c-1.035 1.036-2.913.637-4.231.99-1.361.364-2.799 1.627-4.16 1.263-1.319-.353-1.934-2.141-2.968-3.177-1.035-1.036-2.823-1.655-3.175-2.976-.363-1.362.9-2.801 1.264-4.164.352-1.321-.049-3.2.986-4.236s2.913-.637 4.231-.99c1.361-.364 2.799-1.627 4.16-1.263 1.319.353 1.934 2.141 2.968 3.177 1.035 1.036 2.823 1.655 3.175 2.976.363 1.362-.9 2.801-1.264 4.164-.353 1.32.048 3.2-.986 4.236z" fill="#ffe070"/><path d="m377.997 81.49c3.728 4.536 2.996 10.888-1.667 14.453-12.944 9.897-40.657 27.371-71.302 23.826-32.632-3.775-43.668-26.267-47.008-36.35-1.846-5.572-1.138-11.738 1.932-16.748 5.547-9.055 21.414-28.434 54.046-24.659 30.645 3.545 53.65 26.886 63.999 39.478z" fill="#69da61"/><path d="m376.33 95.943c-12.944 9.897-40.657 27.371-71.302 23.826-10.446-1.208-18.68-4.335-25.156-8.359.94-14.558 21.929-28.758 49.307-32.647 21.804-3.097 41.532 1.216 51.159 10.033-.231 2.703-1.591 5.299-4.008 7.147z" fill="#5ab161"/><g fill="#231f20"><path d="m365.854 430.325c-3.666-2.467-8.638-1.496-11.104 2.17-10.729 15.941-28.573 25.458-47.736 25.458-4.418 0-8 3.582-8 8s3.582 8 8 8c24.496 0 47.304-12.159 61.01-32.524 2.467-3.667 1.495-8.638-2.17-11.104z"/><path d="m166.506 278.139c-1.254-3.672-2.971-8.701-7.978-11.604-4.907-2.845-10.074-1.862-13.849-1.145-3.434.654-3.487.654-6.923 0-3.772-.717-8.939-1.701-13.847 1.145-5.008 2.902-6.726 7.932-7.979 11.604-1.085 3.179-1.038 3.076-3.128 5.437-8.265 9.348-8.268 16.492.001 25.841 2.114 2.39 2.043 2.264 3.127 5.437 1.254 3.672 2.971 8.701 7.978 11.604 4.907 2.845 10.076 1.862 13.849 1.145 3.432-.653 3.484-.654 6.923 0 4.859.924 9.356 1.46 13.847-1.145 6.804-3.943 7.618-11.965 9.175-14.662.32-.556 1.177-1.524 1.932-2.378 8.267-9.346 8.268-16.49.001-25.841-2.101-2.372-2.044-2.259-3.129-5.438zm-12.663 25.655c-1.784 3.092-2.526 6.438-3.461 8.539-2.352-.25-5.518-1.23-9.165-1.23-3.627 0-6.838.983-9.164 1.23-.967-2.173-1.662-5.421-3.461-8.539-1.822-3.153-4.477-5.489-5.729-7.299 1.296-1.871 3.9-4.133 5.729-7.299 1.784-3.09 2.526-6.438 3.461-8.538 3.095.329 5.102 1.269 9.165 1.198 4.066-.072 7.018-.969 9.164-1.198.967 2.173 1.662 5.421 3.461 8.539 1.829 3.166 4.463 5.47 5.729 7.298-1.297 1.876-3.897 4.128-5.729 7.299z"/><path d="m453 287.656c0-65.831-56.955-117.806-122.894-111.083-22.224-13.532-38.999-32.831-48.208-54.969 32.553 15.258 70.555 2.665 99.292-19.307 8.264-6.318 9.597-17.844 2.988-25.887-31.937-38.854-69.952-48.313-97.044-40.263 2.458-3.884 5.245-7.573 8.353-11.049 3.551-3.97 2.296-10.253-2.518-12.552l-24.652-11.766c-2.787-1.329-6.091-.938-8.489 1.01-32.091 26.058-36.444 65.25-36.87 80.362-44.98 16.183-79.28 46.411-95.813 92.294-10.447 28.99-10.531 55.729-9.874 67.636-34.686 18.953-58.271 55.817-58.271 98.093 0 75.659 74.036 129.838 146.334 106.036 17.879 39.653 57.778 65.788 101.68 65.788 72.666 0 126.601-69.106 107.793-140.284 23.392-20.484 38.193-50.572 38.193-84.059zm-139.922-237.698c11.823 1.368 35.177 7.943 58.739 36.61.853 1.038.719 2.205-.346 3.019-49.832 38.1-95.262 23.332-105.857-8.686-2.472-7.469 3.859-15.044 9.721-20.266 10.579-9.41 23.567-12.318 37.743-10.677zm-79.598 45.494c3.44-1.13 5.692-4.446 5.49-8.063-.024-.442-2.017-42.737 27.186-69.912l10.806 5.158c-6.056 8.395-10.729 17.639-13.951 27.61-17.823 17.175-18.237 33.798-3.03 53.728 5.709 30.083 22.948 57.303 48.38 77.031-4.428 1.376-10.055 3.534-14.816 5.813-17.452-11.293-30.687-25.401-39.377-41.988-6.954-13.272-8.235-23.271-8.244-23.335-.541-4.805-5.191-8.026-9.866-6.87-54.194 13.378-82.45 62.956-90.242 116.645-3.758.842-8.493 2.181-12.795 3.717-.371-30.175 7.899-109.143 100.459-139.534zm44.757 100.255c-19.057 13.164-33.861 32.119-41.803 54.407-20.932-15.394-46.957-23.263-74.022-21.307 4.665-26.893 20.032-79.414 69.585-96.336 3.898 13.817 15.111 40.641 46.24 63.236zm28.777 300.292c-37.404 0-71.428-22.15-86.858-55.818 25.138-12.529 45.478-34.671 55.386-62.415 36.743 27.026 86.84 28.789 125.275 4.464 11.347 59.298-34.24 113.769-93.803 113.769zm-30.272-138.029c-6.179-5.71-11.6-12.254-15.934-19.087-2.34-3.685-7.283-4.855-11.041-2.471-3.451 2.189-5.095 6.928-2.256 11.369 4.24 6.633 9.303 12.987 14.87 18.615-7.632 27.066-27.714 50.824-55.599 62.298-62.813 25.889-131.782-20.779-131.782-88.519 0-81.536 95.455-124.99 156.903-73.282l-.002.01c-1.098 5.852-1.82 13.462-1.748 15.087.167 3.781 2.984 6.94 6.721 7.538 4.715.751 8.988-2.733 9.259-7.442 2.868-50.13 44.344-90.094 95.354-90.094 52.666 0 95.513 42.915 95.513 95.664 0 83.35-99.523 126.445-160.258 70.314z"/><path d="m389.133 220.892c-2.364-2.368-5.211-9.798-12.674-11.792-7.594-2.031-13.861 3.064-16.856 3.864-2.637.703-10.937-.509-16.538 5.102-5.642 5.649-4.362 13.834-5.087 16.553-.795 2.984-5.886 9.269-3.865 16.857 1.989 7.464 9.418 10.328 11.782 12.695 2.371 2.375 5.209 9.796 12.674 11.793 7.625 2.041 13.841-3.061 16.857-3.864 2.648-.71 10.925.519 16.538-5.104 5.643-5.652 4.36-13.826 5.084-16.55.801-2.994 5.886-9.274 3.866-16.858-1.989-7.46-9.396-10.311-11.781-12.696zm-7.545 25.433c-.941 3.532-.707 7.034-1.1 9.213-2.236.404-5.662.16-9.196 1.105-3.442.92-6.313 2.749-8.475 3.579-1.479-1.844-3.04-4.792-5.603-7.357-2.567-2.57-5.531-4.146-7.361-5.623.85-2.231 2.658-5.024 3.585-8.503.942-3.539.706-7.029 1.1-9.212 2.229-.402 5.672-.164 9.196-1.105 3.453-.923 6.29-2.738 8.476-3.58 1.475 1.838 3.061 4.814 5.601 7.355 2.568 2.573 5.559 4.168 7.362 5.626-.829 2.175-2.663 5.044-3.585 8.502z"/><path d="m241.45 306.37c-5.714 0-9.568 5.844-7.391 11.06 1.305 3.133 4.296 4.94 7.391 4.94 5.295 0 8.831-4.942 7.84-9.561-.737-3.733-4.021-6.439-7.84-6.439z"/></g></svg>