<svg id="Layer_1" enable-background="new 0 0 512.001 512.001" height="512" viewBox="0 0 512.001 512.001" width="512" xmlns="http://www.w3.org/2000/svg"><circle cx="256" cy="460.718" fill="#a8ffa9" r="43.283"/><path d="m256 417.436c-24.551 0-44.298 20.435-43.242 45.162 11.324 2.057 23.089-.112 32.983-6.318 6.268-3.932 14.249-3.932 20.517 0 9.874 6.194 21.643 8.378 32.983 6.318 1.057-24.726-18.688-45.162-43.241-45.162z" fill="#93e39c"/><circle cx="256" cy="171.567" fill="#a8ffa9" r="43.283"/><path d="m267.532 395.924c0 25.639-20.784 46.423-46.423 46.423-23.199 0-42.423-17.016-45.872-39.248-4.388-28.284 17.49-53.598 45.872-53.598 25.638 0 46.423 20.784 46.423 46.423z" fill="#69da61"/><path d="m175.924 385.23c15.941 5.444 34.219 3.118 48.607-7.489 12.528 9.231 27.919 12.153 42.141 9.251-4.164-21.365-22.98-37.491-45.564-37.491-21.958 0-40.355 15.245-45.184 35.729z" fill="#5ab161"/><circle cx="290.892" cy="395.924" fill="#69da61" r="46.423"/><path d="m245.328 386.992c14.221 2.901 29.612-.019 42.141-9.251 14.369 10.592 32.65 12.939 48.607 7.489-4.829-20.484-23.226-35.73-45.185-35.73-22.582.001-41.399 16.127-45.563 37.492z" fill="#5ab161"/><circle cx="219.391" cy="231.12" fill="#69da61" r="48.708"/><path d="m191.719 228.986c0-21.542 13.985-39.817 33.372-46.243-29.051-3.388-54.407 19.288-54.407 48.377 0 26.901 21.807 48.708 48.708 48.708 5.358 0 10.514-.866 15.336-2.464-24.216-2.823-43.009-23.405-43.009-48.378z" fill="#5ab161"/><circle cx="292.609" cy="231.12" fill="#69da61" r="48.708"/><path d="m265.134 220.275c0-14.612 6.435-27.721 16.625-36.649-21.677 4.932-37.857 24.323-37.857 47.494 0 26.901 21.807 48.708 48.708 48.708 12.288 0 23.513-4.551 32.083-12.059-30.551 6.951-59.559-16.286-59.559-47.494z" fill="#5ab161"/><ellipse cx="193.078" cy="312.96" fill="#a8ffa9" rx="53.078" ry="53.105"/><path d="m156.64 312.96c0-26.497 19.396-48.462 44.758-52.456-32.188-5.071-61.398 19.754-61.398 52.456 0 32.66 29.163 57.533 61.398 52.456-25.362-3.994-44.758-25.959-44.758-52.456z" fill="#93e39c"/><ellipse cx="318.923" cy="312.96" fill="#a8ffa9" rx="53.078" ry="53.105"/><path d="m288.239 303.179c0-17.371 8.337-32.794 21.225-42.483-24.802 4.463-43.62 26.165-43.62 52.264 0 29.329 23.764 53.105 53.078 53.105 11.952 0 22.981-3.952 31.853-10.622-32.672 5.879-62.536-19.248-62.536-52.264z" fill="#93e39c"/><circle cx="256" cy="312.96" fill="#a8ffa9" r="53.105"/><path d="m272.496 356.775c-29.329 0-53.105-23.776-53.105-53.105 0-16.459 7.488-31.17 19.244-40.911-20.801 7.194-35.74 26.953-35.74 50.201 0 29.329 23.776 53.105 53.105 53.105 12.87 0 24.67-4.578 33.861-12.194-5.441 1.882-11.283 2.904-17.365 2.904z" fill="#93e39c"/><path d="m161.724 8.02c-4.998.091-8.702 4.075-8.429 9.066.759 13.856 4.788 41.468 24.04 59.367 20.5 19.059 41.16 13.782 49.532 10.375 4.628-1.883 8.225-5.75 9.767-10.506 2.789-8.598 6.548-29.587-13.952-48.646-19.251-17.898-47.083-19.907-60.958-19.656z" fill="#a8ffa9"/><path d="m153.295 17.087c.759 13.856 4.788 41.468 24.04 59.367 6.563 6.101 13.142 9.708 19.329 11.681 8.899-8.653 6.472-30.1-6.161-49.989-10.062-15.84-23.769-26.24-34.801-27.606-1.621 1.644-2.548 3.96-2.407 6.547z" fill="#c9ffd2"/><path d="m357.703 51.537c.837-4.104-1.747-7.86-5.879-8.546-11.471-1.904-34.789-3.639-52.935 8.845-19.323 13.294-18.771 31.153-17.51 38.621.697 4.128 3.204 7.775 6.813 9.903 6.524 3.847 23.006 10.746 42.328-2.548 18.147-12.484 24.861-34.881 27.183-46.275z" fill="#69da61"/><path d="m351.824 42.992c-11.471-1.904-34.789-3.639-52.935 8.845-6.186 4.256-10.335 8.979-13.076 13.68 5.456 8.855 23.439 10.778 42.008 4.069 14.788-5.343 25.792-14.66 28.919-23.433-1.049-1.626-2.775-2.806-4.916-3.161z" fill="#5ab161"/><g fill="#231f20"><path d="m380 312.96c0-25.086-15.194-46.681-36.854-56.082 7.29-14.223 8.055-30.842 2.669-45.415-1.531-4.145-6.134-6.262-10.277-4.731-4.145 1.531-6.263 6.132-4.731 10.277 4.169 11.28 3.255 24.487-3.499 35.419-14.293-1.967-28.316 1.198-39.796 8.114-9.331-5.615-19.741-8.415-29.924-8.667-16.679-28.02 5.119-64.112 38.499-61.302 4.971.416 9.757 1.711 14.263 3.897 3.975 1.93 8.761.27 10.689-3.706 1.928-3.975.269-8.761-3.706-10.689-3.329-1.615-6.77-2.866-10.293-3.792 2.37-25.883-14.687-48.267-38.169-54.359 3.055-5.348 7.457-10.718 13.171-16.067.665.5 1.358.969 2.084 1.396 14.972 8.828 33.585 9.082 50.927-2.848 20.278-13.952 27.805-38.11 30.487-51.269 1.743-8.551-3.797-16.606-12.408-18.035-13.25-2.199-38.502-3.805-58.78 10.146-17.242 11.863-23.892 29.434-20.825 46.732-6.777 6.015-12.245 12.192-16.373 18.489-3.326-8.122-8.222-17.454-15.327-26.419 1.002-1.646 1.814-3.401 2.417-5.26 3.146-9.701 7.874-34.67-16.115-56.973-21.114-19.63-50.754-22.085-66.55-21.795-9.534.175-16.794 7.977-16.272 17.502.864 15.771 5.466 45.158 26.581 64.788 17.927 16.666 39.233 19.422 57.698 12.043 7.42 9.462 11.978 19.436 14.708 27.294-24.156 5.664-41.737 28.402-39.336 54.631-35.221 9.277-52.382 48.837-36.104 80.599-21.66 9.401-36.854 30.996-36.854 56.082 0 26.629 17.121 49.321 40.924 57.671-4.065 7.746-6.239 16.419-6.239 25.293 0 4.418 3.582 8 8 8s8-3.582 8-8c0-7.886 2.424-15.548 6.89-21.958 11.905.693 24.206-2.126 34.957-8.613 5.389 3.249 11.202 5.621 17.278 7.062-8.308 17.376-6.732 37.619 3.538 53.307-13.584 11.052-33.205 11.634-47.436.837-3.521-2.669-8.538-1.981-11.209 1.538-2.67 3.52-1.981 8.539 1.539 11.209 5.47 4.15 11.55 7.169 18.004 8.993-8.107 32.531 16.66 63.703 49.754 63.703 33.132 0 57.869-31.223 49.746-63.732 22.809-6.482 39.569-27.486 39.569-52.345 0-8.874-2.174-17.547-6.239-25.293 23.803-8.352 40.924-31.043 40.924-57.672zm-76.576-254.533c13.046-8.975 30.615-10.146 46.272-7.676-5.217 24.589-17.065 35.899-23.71 40.471-15.076 10.372-27.604 5.861-33.729 2.248-1.533-.904-2.676-2.49-2.99-4.344-1.184-7.013-.92-20.326 14.157-30.699zm-120.641 12.167c-7.297-6.784-19.794-22.814-21.5-53.945-.024-.463.127-.622.587-.63 31.197-.573 48.068 10.733 55.366 17.517 16.624 15.455 14.522 31.895 11.79 40.318-.815 2.512-2.726 4.568-5.174 5.565-8.202 3.338-24.446 6.63-41.069-8.825zm73.217 65.69c20.476 0 36.823 17.495 35.168 38.146-12.488.315-25.081 4.86-35.168 13.384-9.517-8.039-21.949-13.051-35.168-13.384-1.655-20.655 14.698-38.146 35.168-38.146zm-71.308 116.144c-15.773-25.533 1.059-59.761 31.834-61.904 10.767-.751 21.01 2.784 28.826 9.246-10.842 16.333-12.235 36.911-4.738 54.039-5.646 1.463-11.055 3.734-16.08 6.76-11.863-7.159-25.986-10.047-39.842-8.141zm-36.692 60.532c0-32.595 33.54-54.235 63.054-41.376-21.579 23.524-21.476 59.343 0 82.752-29.105 12.727-63.054-8.49-63.054-41.376zm108 183.041c-23.675 0-40.713-23.017-33.735-45.667 12.312-.262 24.271-4.738 33.735-12.647 9.512 7.945 21.537 12.387 33.735 12.647 6.972 22.62-10.034 45.667-33.735 45.667zm66.425-122.036c23.271 33.401-15.619 76.868-51.676 54.661-18.831-11.641-23.956-36.601-11.393-54.651 9.895-.531 19.584-3.447 28.156-8.597 10.719 6.455 22.952 9.284 34.913 8.587zm-21.428-19.607c3.309-3.615 10.793-13.23 10.609-18.14-.167-4.466-3.936-7.868-8.289-7.704-8.767.329-5.712 9.82-20.594 20.785-26.974 19.877-65.365 4.213-71.127-28.475-8.58-47.98 56.485-74.32 82.854-31.461 2.315 3.763 7.242 4.939 11.006 2.622 2.352-1.447 3.693-3.914 3.802-6.48.12-2.811-1.075-4.459-2.634-6.768-1.804-2.668-3.7-5.048-5.642-7.169 29.862-13.005 63.018 9.198 63.018 41.392 0 32.442-33.401 54.276-63.003 41.398z"/><path d="m316.49 306.64c-3.275-8.031-15.38-5.676-15.38 3.06 0 4.921 4.444 8.82 9.56 7.84 4.975-.976 7.735-6.308 5.82-10.9z"/></g></svg>