<svg id="Layer_1" enable-background="new 0 0 511.99 511.99" height="512" viewBox="0 0 511.99 511.99" width="512" xmlns="http://www.w3.org/2000/svg"><path d="m13.995 289.619c0-89.884 72.865-142.122 162.749-142.122s162.749 52.238 162.749 142.122-72.865 162.749-162.749 162.749-162.749-72.865-162.749-162.749z" fill="#c991ff"/><path d="m307.103 199.626c-70.025 21.442-120.951 86.59-120.951 163.639 0 20.576 15.753 35.529 17.799 45.942 2.222 11.308-2.587 24.895 5.16 33.427-.519.97-1.373 1.617-2.37 2.049.809 1.492 1.634 2.974 2.486 4.439 74.32-15.054 130.267-80.743 130.267-159.504-.001-36.548-12.05-66.873-32.391-89.992z" fill="#b173ff"/><path d="m212.608 160.099c17.084 0 33.55 1.892 49.021 5.566-24.715-11.908-53.779-18.168-84.885-18.168-89.884 0-162.749 52.238-162.749 142.122 0 77.63 54.355 142.555 127.08 158.818-6.374-1.425-13.787-7.458-19.148-11.062-6.325-4.252-12.351-8.947-18.021-14.039-5.668-5.09-10.428-11.058-15.87-16.386-13.048-12.776-8.542-39.536-9.641-41.614-1.9-3.595-6.748-4.395-9.548-7.343-10.589-11.15-17.933-29.512-18.988-55.772-3.607-89.811 72.865-142.122 162.749-142.122z" fill="#d3b3ff"/><ellipse cx="110.331" cy="146.8" fill="#69da61" rx="52.802" ry="35.109" transform="matrix(.991 -.132 .132 .991 -18.464 15.899)"/><ellipse cx="243.157" cy="146.8" fill="#69da61" rx="35.109" ry="52.802" transform="matrix(.132 -.991 .991 .132 65.457 368.381)"/><path d="m105.211 161.13c0 6.246 1.181 13.466 3.363 21.055 2.112-.11 4.248-.297 6.406-.585 28.905-3.861 50.256-22.571 47.689-41.79-1.655-12.391-12.855-21.96-28.346-26.167-17.655 10.741-29.112 28.008-29.112 47.487z" fill="#5ab161"/><path d="m219.166 113.643c-15.491 4.207-26.691 13.776-28.346 26.167-2.567 19.219 18.784 37.93 47.689 41.79 2.158.288 4.294.475 6.406.585 2.182-7.589 3.363-14.809 3.363-21.055 0-19.479-11.458-36.746-29.112-47.487z" fill="#5ab161"/><path d="m225.756 166.266c0 22.319-21.943 62.769-49.011 62.769s-49.011-40.45-49.011-62.769 21.943-40.413 49.011-40.413 49.011 18.094 49.011 40.413z" fill="#a8ffa9"/><path d="m210.169 10.979c-49.945 32.149-45.168 116.051-45.168 116.051h23.486c7.93-46.516 28.212-72.09 44.048-85.436 9.314-7.849 9.082-22.249-.581-29.664-6.338-4.864-15.067-5.275-21.785-.951z" fill="#cd8e50"/><circle cx="357.27" cy="363.265" fill="#db4968" r="140.725"/><circle cx="357.27" cy="363.265" fill="#ff5872" r="117.398"/><g fill="#e6e9df"><path d="m404.62 315.915-47.35 47.35h66.95c19.606 0 33.052-19.893 25.594-38.025-.125-.304-.251-.607-.379-.909-7.57-17.896-31.075-22.155-44.815-8.416z"/><path d="m309.92 410.615 47.35-47.35h-66.95c-19.606 0-33.052 19.893-25.594 38.025.125.304.251.607.379.909 7.571 17.896 31.076 22.155 44.815 8.416z"/><path d="m404.62 410.615-47.35-47.35v66.95c0 19.606 19.893 33.052 38.025 25.594.304-.125.607-.251.909-.379 17.896-7.57 22.156-31.076 8.416-44.815z"/></g><path d="m357.27 296.302v66.963l47.341-47.341c13.863-13.863 9.305-37.438-8.79-44.985-.303-.126-.607-.251-.911-.375-18.007-7.301-37.64 6.307-37.64 25.738z" fill="#fff"/><path d="m309.92 315.915 47.35 47.35v-66.95c0-19.606-19.893-33.052-38.025-25.594-.304.125-.607.251-.909.379-17.895 7.57-22.155 31.075-8.416 44.815z" fill="#e6e9df"/><path d="m290.307 363.265h66.963l-47.341-47.341c-13.863-13.863-37.438-9.305-44.985 8.79-.126.303-.251.607-.375.911-7.301 18.007 6.308 37.64 25.738 37.64z" fill="#fff"/><path d="m357.27 430.228v-66.963l-47.341 47.341c-13.863 13.863-9.305 37.438 8.79 44.985.303.126.607.251.911.375 18.008 7.301 37.64-6.307 37.64-25.738z" fill="#fff"/><path d="m424.233 363.265h-66.963l47.341 47.341c13.863 13.863 37.438 9.305 44.985-8.79.126-.303.251-.607.375-.911 7.302-18.007-6.307-37.64-25.738-37.64z" fill="#fff"/><path d="m196.315 416.65c-.844 1.98-2.255 3.833-4.252 4.635-2.003.804-4.349.423-6.223-.648-1.873-1.071-3.322-2.763-4.476-4.587-3.517-5.559-1.11-15.799 6.54-16.498 8.37-.765 10.963 11.113 8.411 17.098z" fill="#b173ff"/><ellipse cx="77.208" cy="326.859" fill="#d3b3ff" rx="8.654" ry="11.716" transform="matrix(.901 -.434 .434 .901 -134.319 65.987)"/><ellipse cx="164.878" cy="183.949" fill="#c9ffd2" rx="11.3" ry="15.677" transform="matrix(.866 -.5 .5 .866 -69.885 107.084)"/><path d="m329.314 217.173c-9.122-16.182-21.426-30.213-36.709-41.87 5.906-5.607 9.764-12.556 10.819-20.453 3.2-23.96-20.765-46.265-54.56-50.779-19.01-2.536-36.942 1.187-49.413 9.696 8.848-35.056 25.26-55.117 38.239-66.055 13.255-11.169 12.816-31.627-.866-42.128-9.018-6.921-21.47-7.456-30.985-1.33-41.858 26.943-48.159 86.393-48.87 111.685-36.415-29.248-112.702-4.484-106.905 38.912 1.055 7.9 4.914 14.851 10.823 20.458-7.562 5.771-14.441 12.137-20.509 19.033-2.919 3.317-2.596 8.372.721 11.291s8.372 2.598 11.291-.721c6.585-7.484 14.255-14.295 22.842-20.29 15.058 6.592 33.151 7.061 48.8 3.458 11.377 31.666 39.246 59.638 69.537 44.906 16.833-8.215 29.538-27.234 35.887-44.906 15.799 3.639 33.829 3.097 48.805-3.461 14.444 10.085 26.135 22.349 34.881 36.584-57.218 17.648-99.171 68.927-104.106 129.911-.672 8.3 10.512 12.142 14.882 4.671 2.413-4.143.576-42.024 33.074-79.463 25.196-29.029 61.529-45.781 100.28-45.781 73.185 0 132.725 59.54 132.725 132.726 0 73.185-59.54 132.725-132.725 132.725-53.865 0-101.353-32.287-122.016-80.402-1.742-4.058-6.448-5.941-10.508-4.194-4.076 1.75-5.932 6.461-4.194 10.508 1.945 4.528 4.547 9.766 6.895 13.966-100.184 34.786-205.454-39.99-205.454-146.251 0-18.078 3.117-35.021 9.264-50.36 1.644-4.101-.349-8.758-4.45-10.401-4.1-1.646-8.759.348-10.402 4.45-6.909 17.239-10.412 36.186-10.412 56.312 0 118.955 119.147 201.416 230.219 160.085 27.545 38.595 72.324 62.286 121.057 62.286 82.007 0 148.725-66.718 148.725-148.725-.001-93.335-85.198-163.511-176.682-146.093zm-82.568-97.244c24.071 3.216 42.764 18.237 40.818 32.802-.842 6.307-5.373 11.811-12.342 15.485-.078.041-.161.067-.239.11-11.956 6.531-28.071 7.29-41.652 4.219 2.52-19.572-7.482-36.374-24.036-46.075 9.209-5.83 23.159-8.449 37.451-6.541zm-50.442 91.641c-13.546 12.493-25.551 12.512-39.115.004-24.171-23.033-32.799-61.805 3.851-75.245 26.48-8.712 56.716 6.559 56.716 29.938 0 12.582-8.445 32.901-21.452 45.303zm18.195-193.864c3.851-2.478 8.908-2.25 12.583.57 5.588 4.289 5.725 12.626.296 17.2-15.84 13.349-36.133 38.353-45.338 82.586-2.86-.226-5.996-.279-9.113-.101.425-21.383 5.151-76.812 41.572-100.255zm-70.307 108.764c-16.756 9.819-26.53 26.702-24.036 46.075-25.494 5.768-52.048-3.463-54.232-19.814-3.364-25.183 49.49-44.481 78.268-26.261z" fill="#231f20"/><path d="m267.803 363.281c-27.293 22.252-8.939 66.921 26.215 63.263-3.564 35.08 41.02 53.619 63.268 26.188 22.387 27.458 66.902 8.786 63.259-26.208 34.856 3.549 53.779-40.9 26.193-63.274 27.171-22.156 9.083-66.941-26.215-63.258 3.537-34.76-40.822-53.87-63.267-26.194-22.277-27.321-66.919-8.892-63.258 26.215-34.85-3.544-53.787 40.889-26.195 63.268zm18.675 47.089c-13.556-2.645-20.317-18.707-12.501-30.373 3.717-5.549 9.675-8.731 16.344-8.731h47.636l-33.683 33.683c-.101.058-6.92 7.545-17.796 5.421zm54.043 36.262c-11.763 7.921-27.645.887-30.317-12.639-1.295-6.552.667-13.015 5.383-17.73l33.684-33.683v47.635c-.027.101.441 10.225-8.75 16.417zm63.854-12.575c-2.715 13.92-18.919 20.175-30.374 12.501-5.549-3.718-8.731-9.675-8.731-16.344v-47.635l33.693 33.693c4.654 4.654 6.677 11.302 5.412 17.785zm36.262-54.042c7.719 11.461 1.127 27.597-12.638 30.316-6.554 1.295-13.015-.668-17.731-5.384l-33.683-33.683h47.636c.101.027 10.225-.44 16.416 8.751zm-30.36-58.443c4.653-4.653 11.302-6.677 17.786-5.412 13.556 2.645 20.317 18.709 12.5 30.374-3.717 5.549-9.674 8.731-16.343 8.731h-47.636zm-45.007-25.27c0-6.581 3.271-12.714 8.75-16.404 11.821-7.961 27.664-.787 30.316 12.639 1.295 6.553-.667 13.015-5.383 17.73l-33.684 33.684v-47.649zm-49.693 13.956c-4.653-4.652-6.676-11.302-5.412-17.785 2.614-13.398 18.512-20.447 30.374-12.501 5.549 3.718 8.731 9.675 8.731 16.344v47.636zm-11.304 11.324 33.683 33.684c-15.334 0-22.788 0-47.649 0-6.581 0-12.713-3.271-16.403-8.75-8.678-12.882.745-30.707 16.583-30.707 5.147-.001 10.023 2.009 13.786 5.773z" fill="#231f20"/><path d="m218.305 393.53c4.354 0 8-3.543 8-8 0-3.871-2.802-7.13-6.44-7.84-4.894-.998-9.56 2.778-9.56 7.84 0 4.42 3.589 8 8 8z" fill="#231f20"/></svg>