<svg id="Layer_1" enable-background="new 0 0 511.995 511.995" height="512" viewBox="0 0 511.995 511.995" width="512" xmlns="http://www.w3.org/2000/svg"><path d="m349.13 285.865c0 111.786-75.678 176.819-169.031 176.819s-169.031-65.033-169.031-176.819 75.678-202.406 169.031-202.406 169.031 90.62 169.031 202.406z" fill="#c991ff"/><path d="m38.753 306.629c0-111.786 75.678-202.406 169.031-202.406 27.075 0 52.657 7.635 75.343 21.186-28.522-26.3-64.246-41.95-103.028-41.95-93.353 0-169.031 90.62-169.031 202.406 0 72.523 31.86 125.357 79.727 153.532-32.072-30.271-52.042-75.35-52.042-132.768z" fill="#d3b3ff"/><path d="m161.541 351.513c0 16.518 14.547 20.981 18.558 36.239 2.585 9.834-10.526 24.462-2.389 40.04 6.136 11.748 12.039 23.534 19.762 34.124 85.192-7.591 151.659-71.29 151.659-176.052 0-44.544-12.026-85.718-32.389-119.147-88.166 15.348-155.201 92.24-155.201 184.796z" fill="#b173ff"/><path d="m223.331 10.165c-5.526-3.537-12.799-2.686-17.307 2.081-11.452 12.112-30.34 39.97-31.481 92.7-.106 4.903 1.78 9.783 5.689 13.332 11.453 10.399 29.784 1.748 29.38-13.716-.515-19.711 1.899-50.21 17.931-75.574 4.019-6.357 2.122-14.769-4.212-18.823z" fill="#69da61"/><path d="m210.281 83.776c-5.541 8.72-18.256 11.652-26.958 3.5-3.591-3.36-5.512-8.154-5.406-13.071.019-.872.055-1.719.084-2.577-1.919 9.803-3.188 20.857-3.458 33.317-.106 4.917 1.815 9.711 5.406 13.071 11.573 10.842 30.068 2.042 29.663-13.456-.158-6.061-.037-13.145.669-20.784z" fill="#5ab161"/><circle cx="348.587" cy="351.514" fill="#c991ff" r="152.481"/><circle cx="348.587" cy="351.514" fill="#ffe070" r="119.881"/><circle cx="348.587" cy="351.514" fill="#ffb750" r="91.578"/><ellipse cx="159.399" cy="389.053" fill="#b173ff" rx="8.088" ry="10.176" transform="matrix(.964 -.266 .266 .964 -97.774 56.439)"/><g fill="#231f20"><path d="m348.588 223.632c-70.514 0-127.881 57.367-127.881 127.881 0 101.909 113.485 161.94 197.53 107.267 3.704-2.409 4.753-7.365 2.344-11.068-2.409-3.704-7.365-4.754-11.068-2.344-73.55 47.849-172.806-4.73-172.806-93.854 0-61.691 50.189-111.881 111.881-111.881 92.978 0 144.663 107.028 88.875 179.851-2.687 3.508-2.021 8.529 1.485 11.216 3.508 2.688 8.528 2.022 11.216-1.485 63.884-83.393 4.524-205.583-101.576-205.583z"/><path d="m338.325 191.378c-23.888-56.465-67.96-97.248-119.668-110.896 1.819-15.386 6.224-32.311 15.649-47.219 6.345-10.038 3.356-23.422-6.663-29.835-8.769-5.609-20.304-4.214-27.432 3.323-9.77 10.332-25.019 31.79-31.094 69.127-44.104 3.194-85.094 25.511-116.044 63.39-64.22 78.596-70.103 211.476 1.879 282.617 47.195 46.643 118.975 58.577 178.636 41.441 29.176 30 69.945 48.669 114.998 48.669 88.489 0 160.48-71.992 160.48-160.481.002-91.823-77.585-166.024-170.741-160.136zm-126.488-173.635c4.599-4.864 12.622 1.152 8.945 6.971-14.819 23.442-19.887 52.44-19.167 80.057.156 5.977-4.34 8.508-5.722 9.142-6.465 2.959-13.503-1.769-13.352-8.793.661-30.675 8.393-65.272 29.296-87.377zm136.751 478.252c-112.09 0-181.946-123.216-123.605-219.333 2.304-3.798 1.064-8.712-2.688-10.99-3.794-2.302-8.723-1.047-10.99 2.688-34.506 56.85-30.167 129.211 10.488 181.535-53.105 12.654-114.675 1.05-155.593-39.39-66.445-65.668-59.308-189.43-.736-261.114 27.386-33.516 63.215-53.625 101.718-57.31-1.558 19.749.337 34.307 19.687 38.252 15.647 3.176 31.186-8.943 30.74-25.98-.066-2.531-.076-5.066-.03-7.592 44.323 12.784 82.309 47.987 104.134 96.542-22.87 3.857-44.063 12.571-62.225 24.718-3.673 2.456-4.659 7.425-2.203 11.098 2.456 3.672 7.423 4.658 11.098 2.203 93.557-62.552 224.686 3.022 224.686 120.192-.001 79.666-64.814 144.481-144.481 144.481z"/><path d="m235.828 253.004c6.524 2.718 13.18-3.843 10.44-10.45-1.823-4.59-7.644-6.409-11.82-3.59-5.223 3.44-4.62 11.59 1.38 14.04z"/><path d="m336.488 287.964c2.829-4.297 1.011-9.909-3.59-11.83-4.123-1.718-8.777.305-10.45 4.32-3.647 8.932 8.674 15.46 14.04 7.51z"/><path d="m295.558 308.424c2.121-3.142 1.702-7.398-1-10.1-3.066-3.082-8.172-3.139-11.311 0-3.586 3.584-2.94 9.564 1.22 12.31 3.69 2.485 8.708 1.41 11.091-2.21z"/><path d="m322.548 341.535c3.605 1.502 7.679.127 9.71-2.95 3.143-4.656.522-11.173-5.09-12.28-3.275-.668-6.535.842-8.22 3.4-2.836 4.296-.978 9.957 3.6 11.83z"/><path d="m370.358 320.714c-2.753-4.18-8.751-4.779-12.311-1.22-3.634 3.742-2.892 9.601 1.221 12.31 7.214 4.87 15.957-3.879 11.09-11.09z"/><path d="m405.358 350.575c2.626-2.626 3.157-6.872.99-10.101-2.783-4.217-8.791-4.748-12.301-1.22-3.591 3.591-2.966 9.553 1.21 12.31 3.098 2.086 7.352 1.74 10.101-.989z"/><path d="m417.348 309.644c3.107-3.116 3.146-8.173 0-11.319-3.012-3.028-8.119-3.191-11.311 0-2.689 2.687-3.113 6.954-.99 10.1 2.756 4.184 8.739 4.781 12.301 1.219z"/><path d="m276.608 343.424c-2.566.501-4.772 2.263-5.82 4.78-1.931 4.626.892 9.936 5.82 10.899 4.191.89 8.538-1.86 9.41-6.279 1.169-5.459-3.789-10.542-9.41-9.4z"/><path d="m320.677 378.644c.876-4.437-2.056-8.574-6.279-9.399-3.576-.729-7.414 1.1-8.95 4.779-4.364 10.473 12.937 16.372 15.229 4.62z"/><path d="m294.788 420.644c3.552 1.48 7.646.178 9.71-2.949 2.172-3.226 1.62-7.54-1-10.091-3.084-3.104-8.157-3.152-11.31 0-3.935 3.831-2.774 10.856 2.6 13.04z"/><path d="m340.578 436.735c3.734-.737 6.43-4.062 6.43-7.841 0-3.127-1.853-6.129-4.939-7.39-5.239-2.183-11.061 1.674-11.061 7.39 0 4.863 4.421 8.828 9.57 7.841z"/><path d="m386.848 409.754c-4.845.945-7.782 6.13-5.83 10.91 1.435 3.453 5.114 5.53 8.949 4.78 4.876-.96 7.773-6.161 5.83-10.91-1.472-3.551-5.273-5.53-8.949-4.78z"/><path d="m357.788 382.434c4.074-1.689 6.036-6.353 4.33-10.439-1.521-3.649-5.353-5.513-8.95-4.78-3.735.73-6.439 4.021-6.439 7.84-.001 5.787 5.997 9.596 11.059 7.379z"/><path d="m423.988 380.695c-2.892-4.293-8.843-4.686-12.3-1.21-3.099 3.091-3.139 8.17 0 11.31 2.659 2.659 6.917 3.132 10.09.99 3.595-2.373 4.719-7.288 2.21-11.09z"/><path d="m377.828 289.174c3.118-3.118 3.146-8.163 0-11.31-3.027-3.109-8.192-3.119-11.31 0-3.09 3.09-3.145 8.164 0 11.31 3.084 3.092 8.195 3.137 11.31 0z"/></g></svg>