<svg id="Layer_1" enable-background="new 0 0 512 512" height="512" viewBox="0 0 512 512" width="512" xmlns="http://www.w3.org/2000/svg"><ellipse cx="188.084" cy="197.792" fill="#ff5872" rx="134.38" ry="175.755"/><path d="m229.783 312.976c0 4.651.132 8.154.291 10.689.187 2.973-2.167 5.479-5.137 5.479-4.164 0-7.539 3.45-7.391 7.624.377 10.587 1.474 21.142 3.225 31.533 58.417-19.097 101.692-88.188 101.692-170.508 0-11.868-.905-23.459-2.62-34.667-50.992 18.107-90.06 78.332-90.06 149.85z" fill="#db4968"/><path d="m114.733 120.553c2.217-3.883-1.1-27.434 19.33-41.696 5.789-4.041 18.662-3.743 24.236-7.714 36.6-26.072 79.856-27.861 116.717-7.363-23.435-26.03-53.778-41.743-86.933-41.743-74.216 0-134.38 78.688-134.38 175.756 0 72.685 33.737 135.062 81.847 161.814-54.344-60.363-63-165.154-20.817-239.054z" fill="#ff7f90"/><ellipse cx="353.736" cy="313.306" fill="#fff2b9" rx="102.548" ry="134.123"/><path d="m251.642 325.915c4.86 68.16 48.71 121.514 102.094 121.514s97.234-53.354 102.094-121.514z" fill="#ffe070"/><path d="m241.525 344.844c.211 81.56 50.825 147.593 113.234 147.593s113.022-66.033 113.234-147.593z" fill="#ff5872"/><path d="m370.492 464.707c-9.349 1.263-20.055-9.346-22.193-9.503-49.763-3.661-90.936-49.348-103.11-110.36h-3.663c.211 81.56 50.825 147.593 113.234 147.593s113.022-66.033 113.234-147.593h-3.663c-9.739 48.804-38.032 87.802-74.435 103.328-11.061 4.718-7.248 14.892-19.404 16.535z" fill="#db4968"/><path d="m143.383 91.053c1.76 2.592.487 6.538-2.843 8.814s-7.458 2.019-9.218-.573-.487-6.538 2.843-8.814 7.457-2.019 9.218.573z" fill="#ff7f90"/><ellipse cx="181.202" cy="73.283" fill="#ff7f90" rx="5.12" ry="5.135"/><path d="m372.843 455.186c-1.585 2.753-5.094 3.696-7.839 2.107s-3.685-5.109-2.1-7.862 5.094-3.696 7.839-2.107c2.744 1.589 3.685 5.109 2.1 7.862z" fill="#db4968"/><g fill="#231f20"><path d="m387.911 230.889c17.606 14.568 28.646 39.618 29.531 67.01.144 4.422 3.849 7.884 8.255 7.737 4.416-.143 7.88-3.839 7.737-8.255-1.031-31.906-14.236-61.371-35.324-78.82-3.404-2.815-8.447-2.339-11.264 1.064s-2.34 8.446 1.065 11.264z"/><path d="m273.456 237.859c4.443 0 8-3.634 8-8 0-4.814-4.379-8.849-9.569-7.85-4.016.868-6.431 4.255-6.431 7.85 0 4.387 3.571 8 8 8z"/><path d="m472.836 387.438-1.424-.333c2.979-13.578 4.543-27.76 4.581-42.242.012-4.423-3.575-8.021-8-8.021h-5.231c5.549-42.885-4.012-89.038-30.159-123.236-28.447-37.207-67.948-49.134-103.278-38.99-.821-8.436-2.087-16.741-3.782-24.867l.451-.025c4.411-.247 7.787-4.023 7.54-8.435s-4.025-7.81-8.435-7.54l-3.456.193c-4.488-15.686-10.625-30.525-18.274-44.117l3.248-1.639c3.944-1.99 5.529-6.801 3.539-10.746s-6.804-5.528-10.746-3.539l-4.519 2.28c-9.455-13.822-20.846-26.364-34.313-36.65l1.023-1.247c2.803-3.416 2.306-8.456-1.11-11.259-3.417-2.803-8.457-2.305-11.259 1.11l-1.975 2.407c-15.984-9.409-33.295-14.937-51.173-16.212v-6.33c0-4.418-3.582-8-8-8s-8 3.582-8 8v6.329c-17.197 1.214-33.799 6.335-49.2 15.034l-2.456-3.676c-2.455-3.674-7.423-4.663-11.097-2.208s-4.662 7.423-2.208 11.097l2.333 3.492c-12.672 9.354-24.578 21.519-35.111 36.563l-3.968-2.447c-3.759-2.318-8.689-1.151-11.009 2.61-2.319 3.761-1.15 8.689 2.61 11.009l3.775 2.328c-7.498 12.985-13.576 27.09-18.134 41.991l-5.106-1.277c-4.286-1.074-8.63 1.533-9.702 5.819s1.533 8.63 5.819 9.702l4.868 1.218c-3.342 14.667-5.268 29.952-5.695 45.572l-5.244.299c-4.411.252-7.783 4.031-7.532 8.442.243 4.257 3.77 7.545 7.98 7.545.411 0 .33-.01 4.878-.265.566 14.653 2.462 28.992 5.603 42.787l-3.417.848c-4.288 1.064-6.901 5.403-5.838 9.691 1.062 4.281 5.394 6.903 9.691 5.838l3.681-.913c4.766 15.591 11.194 30.314 19.174 43.792l-7.054 5.301c-3.532 2.654-4.244 7.669-1.59 11.201 1.572 2.092 3.972 3.194 6.401 3.194 4.17 0 5.871-2.819 11.008-6.269 9.714 13.532 21.292 25.733 34.949 35.618l-2.58 4.353c-2.253 3.801-.998 8.708 2.803 10.961 3.8 2.252 8.708.998 10.961-2.803l2.327-3.926c15.084 8.318 31.297 13.223 48.076 14.407v5.302c0 4.418 3.582 8 8 8s8-3.582 8-8v-5.3c13.461-.953 26.59-4.315 39.221-10.045.801 5.987 1.873 11.882 3.2 17.666-3.841 1.594-5.855 5.905-4.518 9.911 1.194 3.577 4.78 5.937 8.709 5.379 3.623 11.279 8.286 21.998 13.92 31.959-5.581 5.945.359 15.615 8.269 13.077 8.5 12.066 18.537 22.637 30.055 31.057l-.202.365c-2.142 3.864-.746 8.733 3.118 10.876 3.724 2.062 8.37.854 10.634-2.744 12.063 6.388 24.95 10.235 38.27 11.337v3.903c0 4.418 3.582 8 8 8s8-3.582 8-8v-3.905c13.782-1.141 27.102-5.222 39.524-12.014 2.472 3.506 7.25 4.45 10.863 2.118 3.618-2.334 4.713-7.093 2.55-10.771 11.305-8.473 20.885-18.807 28.9-30.171.305.132 1.918 1.37 4.514 1.37 8.158 0 11.069-10.825 4.025-14.917 5.791-10.311 10.542-21.428 14.183-33.13 1.513.317 2.319.65 3.705.65 9.457 0 11.023-13.641 1.816-15.792zm-239.068-33.255c-12.095 6.262-24.725 9.949-37.685 11.024v-1.572c0-4.418-3.582-8-8-8s-8 3.582-8 8v1.566c-14.034-1.17-27.453-5.392-39.885-12.173l4.036-6.809c2.253-3.801.998-8.708-2.803-10.961-3.803-2.255-8.708-.997-10.961 2.803l-3.755 6.335c-11.303-8.37-21.545-18.97-30.382-31.358l5.559-4.177c3.532-2.654 4.244-7.669 1.59-11.201-2.655-3.531-7.669-4.243-11.201-1.59l-4.61 3.464c-6.67-11.571-12.232-24.322-16.474-37.975l5.159-1.28c4.288-1.064 6.901-5.403 5.838-9.691s-5.404-6.898-9.691-5.838l-5.45 1.353c-2.886-12.715-4.67-26.058-5.189-39.837l8.516-.485c4.411-.252 7.783-4.031 7.532-8.442-.252-4.41-4.025-7.782-8.442-7.532l-7.633.435c.473-14.108 2.267-27.766 5.218-40.767l5.433 1.359c4.303 1.077 8.634-1.551 9.702-5.819 1.072-4.286-1.533-8.63-5.819-9.702l-5.171-1.293c4.183-13.458 9.646-26.04 16.19-37.479l5.498 3.39c3.761 2.318 8.691 1.15 11.009-2.61 2.319-3.761 1.15-8.689-2.61-11.009l-5.3-3.268c8.83-12.479 19.077-23.166 30.399-31.608l4.313 6.456c2.456 3.674 7.424 4.662 11.097 2.208 3.674-2.455 4.662-7.423 2.208-11.097l-4.173-6.246c12.535-6.899 26.08-11.191 40.252-12.373v1.566c0 4.418 3.582 8 8 8s8-3.582 8-8v-1.565c14.354 1.208 28.109 5.632 40.835 12.762l-4.287 5.226c-2.803 3.416-2.306 8.456 1.11 11.259 3.438 2.82 8.475 2.284 11.259-1.11l5.371-6.546c11.17 8.452 21.301 19.101 30.041 31.513l-4.935 2.49c-3.944 1.99-5.529 6.801-3.539 10.746 1.997 3.958 6.814 5.524 10.746 3.539l6.331-3.193c6.559 11.529 12.032 24.213 16.197 37.796l-3.922.22c-4.411.247-7.787 4.023-7.54 8.435.247 4.415 4.035 7.794 8.435 7.54l7.182-.402c2.139 9.666 3.643 19.694 4.434 30.009-10.022 4.978-19.096 11.714-26.913 19.344-3.162 3.085-3.225 8.15-.139 11.313 3.083 3.16 8.148 3.226 11.313.139 69.591-67.895 164.341 14.419 148.564 125.384h-185.773c-3.742-26.445-1.123-53.036 7.137-76.647 1.46-4.17-.738-8.733-4.909-10.192-4.167-1.463-8.732.738-10.192 4.909-9.154 26.161-11.719 54.658-8.189 81.931h-3.173c-4.368 0-7.941 3.503-7.994 7.901-.021 1.533.045 5.467.235 9.432zm205.443 73.577-3.804-2.171c-3.839-2.19-8.724-.854-10.914 2.982-2.189 3.838-.854 8.724 2.982 10.914l3.143 1.794c-6.94 9.62-14.897 17.926-23.636 24.614l-2.75-4.261c-2.396-3.712-7.345-4.782-11.06-2.384-3.712 2.396-4.779 7.347-2.384 11.06l2.74 4.247c-9.647 5.117-19.986 8.39-30.772 9.478-.029-4.394-3.597-7.948-7.997-7.948s-7.969 3.554-7.997 7.948c-10.668-1.076-20.899-4.291-30.456-9.312l2.7-4.871c2.142-3.864.746-8.733-3.118-10.876-3.866-2.141-8.733-.746-10.876 3.118l-2.216 3.998c-8.835-6.716-16.877-15.083-23.881-24.789l3.177-1.842c3.822-2.217 5.124-7.111 2.908-10.934-2.217-3.822-7.111-5.125-10.934-2.908l-3.744 2.171c-4.918-8.792-9.082-18.37-12.361-28.568l3.558-1.188c4.191-1.398 6.454-5.931 5.055-10.121-1.398-4.19-5.933-6.455-10.121-5.055l-2.673.892c-2.139-9.677-3.561-20.033-4.058-30.904h210.08c-.479 10.56-1.848 20.807-3.998 30.616l-3.451-.806c-4.309-1.013-8.605 1.668-9.61 5.97-1.005 4.303 1.668 8.605 5.97 9.61l2.943.688c-3.292 10.298-7.485 19.968-12.445 28.838z"/><path d="m361.143 373.644c-4.418 0-8 3.582-8 8v13.39c0 4.418 3.582 8 8 8s8-3.582 8-8v-13.39c0-4.418-3.582-8-8-8z"/><path d="m393.447 404.557c-4.418 0-8 3.582-8 8v13.39c0 4.418 3.582 8 8 8s8-3.582 8-8v-13.39c0-4.418-3.582-8-8-8z"/><path d="m320.844 405.301c-4.418 0-8 3.582-8 8v13.389c0 4.418 3.582 8 8 8s8-3.582 8-8v-13.389c0-4.418-3.582-8-8-8z"/><path d="m142.063 124.934c0-4.418-3.582-8-8-8s-8 3.582-8 8v15.889c0 4.418 3.582 8 8 8s8-3.582 8-8z"/><path d="m222.483 93.341c-4.418 0-8 3.582-8 8v15.889c0 4.418 3.582 8 8 8s8-3.582 8-8v-15.889c0-4.418-3.582-8-8-8z"/><path d="m176.088 146.473c-4.418 0-8 3.582-8 8v15.889c0 4.418 3.582 8 8 8s8-3.582 8-8v-15.889c0-4.418-3.582-8-8-8z"/><path d="m125.947 189.792c-4.418 0-8 3.582-8 8v15.889c0 4.418 3.582 8 8 8s8-3.582 8-8v-15.889c0-4.418-3.582-8-8-8z"/><path d="m198.081 207.874c-4.418 0-8 3.582-8 8v15.889c0 4.418 3.582 8 8 8s8-3.582 8-8v-15.889c0-4.418-3.583-8-8-8z"/><path d="m251.58 189.423c4.418 0 8-3.582 8-8v-15.888c0-4.418-3.582-8-8-8s-8 3.582-8 8v15.888c0 4.418 3.582 8 8 8z"/><path d="m216.476 263.813c-4.418 0-8 3.582-8 8v15.889c0 4.418 3.582 8 8 8s8-3.582 8-8v-15.889c0-4.418-3.582-8-8-8z"/><path d="m147.836 271.638c-4.418 0-8 3.582-8 8v15.889c0 4.418 3.582 8 8 8s8-3.582 8-8v-15.889c0-4.418-3.582-8-8-8z"/></g></svg>