<svg id="Layer_1" enable-background="new 0 0 512.012 512.012" height="512" viewBox="0 0 512.012 512.012" width="512" xmlns="http://www.w3.org/2000/svg"><path d="m449.652 397.754-185.794-384.826c-3.171-6.568-12.533-6.568-15.704 0l-185.793 384.826c-4.366 9.043-2.543 19.833 4.497 26.997 103.889 105.727 274.497 105.636 378.297 0 7.04-7.164 8.863-17.954 4.497-26.997z" fill="#a8ffa9"/><path d="m444.386 386.847c-103.67 104.64-273.079 104.649-376.759 0l-5.266 10.907c-4.366 9.043-2.543 19.833 4.497 26.997 103.889 105.727 274.497 105.636 378.297 0 7.04-7.165 8.863-17.954 4.497-26.997z" fill="#85eda2"/><path d="m248.154 12.928-157.671 326.577c33.824 55.851 95.298 93.195 165.523 93.195s131.699-37.345 165.523-93.195l-157.671-326.577c-3.171-6.568-12.533-6.568-15.704 0z" fill="#ff5872"/><path d="m256.006 390.453c-62.611 0-118.266-29.686-153.57-75.706l-11.953 24.758c33.824 55.851 95.298 93.195 165.523 93.195s131.699-37.345 165.523-93.195l-11.953-24.758c-35.304 46.02-90.959 75.706-153.57 75.706z" fill="#db4968"/><g fill="#231f20"><path d="m153.116 313.055v16.329c0 4.418 3.582 8 8 8s8-3.582 8-8v-16.329c0-4.418-3.582-8-8-8s-8 3.581-8 8z"/><path d="m224.376 305.055c-4.418 0-8 3.582-8 8v16.329c0 4.418 3.582 8 8 8s8-3.582 8-8v-16.329c0-4.419-3.582-8-8-8z"/><path d="m279.636 329.384c0 4.418 3.582 8 8 8s8-3.582 8-8v-16.329c0-4.418-3.582-8-8-8s-8 3.582-8 8z"/><path d="m350.896 305.055c-4.418 0-8 3.582-8 8v16.329c0 4.418 3.582 8 8 8s8-3.582 8-8v-16.329c0-4.419-3.582-8-8-8z"/><path d="m184.746 242.292v16.329c0 4.418 3.582 8 8 8s8-3.582 8-8v-16.329c0-4.418-3.582-8-8-8s-8 3.581-8 8z"/><path d="m248.006 258.621c0 4.418 3.582 8 8 8s8-3.582 8-8v-16.329c0-4.418-3.582-8-8-8s-8 3.582-8 8z"/><path d="m327.266 258.621v-16.329c0-4.418-3.582-8-8-8s-8 3.582-8 8v16.329c0 4.418 3.582 8 8 8s8-3.582 8-8z"/><path d="m232.376 171.528c0-4.418-3.582-8-8-8s-8 3.582-8 8v16.329c0 4.418 3.582 8 8 8s8-3.582 8-8z"/><path d="m287.636 195.858c4.418 0 8-3.582 8-8v-16.329c0-4.418-3.582-8-8-8s-8 3.582-8 8v16.329c0 4.418 3.582 8 8 8z"/><path d="m256.006 125.094c4.418 0 8-3.582 8-8v-16.329c0-4.418-3.582-8-8-8s-8 3.582-8 8v16.329c0 4.419 3.582 8 8 8z"/><path d="m351.325 398.676c-3.061 3.069-3.194 8.108 0 11.31 3.153 3.153 8.228 3.082 11.311 0 3.032-3.031 3.204-8.106 0-11.31-3.143-3.143-8.204-3.107-11.311 0z"/><path d="m456.856 394.273-185.794-384.828c-6.073-12.577-24.023-12.611-30.111 0l-18.418 38.148c-1.921 3.979-.253 8.761 3.726 10.682 3.978 1.922 8.762.253 10.683-3.726l18.418-38.148c1.379-2.849-2.208-5.642 157.037 322.581-9.282 14.554-20.519 27.749-33.503 39.232-3.309 2.927-3.619 7.983-.691 11.292 2.927 3.309 7.982 3.619 11.293.692 11.653-10.308 22.027-21.876 30.97-34.504l21.983 45.533c2.877 5.959 1.672 13.158-2.999 17.912-48.701 49.562-113.849 76.857-183.442 76.857s-134.741-27.295-183.442-76.857c-4.671-4.754-5.876-11.952-2.999-17.912l21.992-45.551c54.341 76.674 152.753 104.252 237.367 71.439 4.119-1.598 6.164-6.232 4.566-10.352-1.598-4.119-6.229-6.162-10.352-4.566-80.679 31.288-175.036 2.797-223.529-73.202l119.687-247.903c1.921-3.979.253-8.761-3.726-10.682-3.979-1.92-8.761-.254-10.683 3.726-8.957 18.55-143.947 298.151-149.733 310.136-5.806 12.024-3.396 26.525 5.995 36.083 107.025 108.92 282.769 108.834 389.709 0 9.392-9.558 11.801-24.058 5.996-36.082z"/></g></svg>